<svg id="logo" xmlns="http://www.w3.org/2000/svg" viewBox="0 0 948.87 844.22"><defs><style>.cls-1{fill:#53c1de;}.cls-2{fill:#0acf83;}.cls-3{fill:#a259ff;}.cls-4{fill:#f24e1e;}.cls-5{fill:#ff7262;}.cls-6{fill:#1abcfe;}</style></defs><title>react-figma logo</title><path class="cls-1" d="M818.16,349.73q-14.76-5.09-30.55-9.62,2.6-10.58,4.72-20.84c23.13-112.23,8-202.65-43.62-232.42-49.5-28.55-130.45,1.21-212.21,72.37q-11.79,10.26-23.63,21.68-7.87-7.54-15.72-14.52C411.46,90.29,325.58,58.23,274,88.09c-49.45,28.63-64.1,113.63-43.28,220q3,15.41,7,31.43c-12.15,3.45-23.89,7.13-35.12,11C102.16,385.59,38,440.48,38,497.42,38,556.22,106.87,615.2,211.51,651c8.25,2.82,16.82,5.49,25.65,8q-4.29,17.31-7.45,33.87c-19.84,104.52-4.34,187.52,45,216,50.94,29.38,136.44-.81,219.69-73.59q9.87-8.62,19.8-18.25,12.87,12.39,25.66,23.4c80.64,69.4,160.28,97.42,209.56,68.89,50.89-29.46,67.43-118.61,46-227.09q-2.46-12.42-5.69-25.36c6-1.77,11.9-3.61,17.64-5.51,108.78-36,179.56-94.31,179.56-153.9C986.87,440.27,920.64,385,818.16,349.73Zm-350.45,455c-36.82,32.18-73.71,55-106.22,66.5-29.22,10.31-52.48,10.61-66.55,2.5-26.34-15.19-39.13-68.63-30.26-142.15a97.89,97.89,0,0,1,28.75-148.82,99.76,99.76,0,0,1-25.61-20.07c-7.42,19.42-14,38.57-19.78,57.27q-12.1-3.48-23.42-7.33C178.35,596.8,140.14,576.24,114,553.82c-23.53-20.16-35.41-40.17-35.41-56.4,0-34.56,51.51-78.63,137.42-108.58,10.42-3.64,21.34-7.06,32.66-10.28,5.33,17.32,11.4,35,18.17,52.91a99.81,99.81,0,0,1,23.39-19.35C261.49,395.43,242,362.89,242,325.5A102.25,102.25,0,0,1,264.46,261c-7.85-71.26,4.5-123.19,29.85-137.86,31.75-18.38,101.94,7.82,175.93,73.52q7.08,6.3,14.23,13.14-5.1,5.47-10.18,11.13-2.69,3-5.36,6H519a89,89,0,0,1,52.34,17.09q-15-18-30.05-34.28,10.94-10.53,21.82-20c70-61,135.53-85,165.36-67.83,31.77,18.33,44.13,92.23,24.16,189.13q-1.9,9.27-4.26,18.87a970.3,970.3,0,0,0-126.87-20q-8.6-12.23-17.32-24a104.11,104.11,0,0,1,2.1,73.62q19.72,29.83,38.44,62.11c14.87,25.7,28.54,51.16,40.9,76.13-12.32,25.4-26,51.12-40.77,76.81s-30.06,50.27-45.52,73.44c-28.16,2-57.25,3.05-86.9,3.05-24.43,0-48.31-.64-71.5-1.87v18.3c-.23,22-5.05,39.19-12.44,52.58,18.77,24.42,38,47.21,57.3,67.94C479.73,793.9,473.71,799.47,467.71,804.71Zm239.38-354q-12.9-24.51-27.29-49.37Q665.71,377,650.94,353.91c30.28,3.83,59.28,8.91,86.52,15.13A862.79,862.79,0,0,1,707.09,450.74Zm.39,93.85a859,859,0,0,1,31.86,83.47,858.21,858.21,0,0,1-88.51,15.09Q665.6,619.73,680,594.87,694.46,569.73,707.48,544.59ZM514,758.89c-19.21-20.73-38.38-43.66-57.09-68.32q27.24,1.06,55.51,1.08,29,0,57.28-1.28A861.69,861.69,0,0,1,514,758.89Zm246.15,56.4c-5.65,30.46-17,50.77-31.07,58.91-29.91,17.31-93.85-5.19-162.82-64.54q-11.87-10.2-23.86-21.76c26.74-29.24,53.46-63.23,79.54-101,45.87-4.07,89.21-10.72,128.51-19.81q2.89,11.71,5.13,23C765.09,738,766.45,781.39,760.16,815.29Zm34.41-202.46c-5.19,1.72-10.52,3.38-15.94,5-12-38-28.22-78.44-48-120.21,18.93-40.77,34.51-80.68,46.18-118.45q14.57,4.21,28.21,8.9c87.8,30.23,141.36,74.92,141.36,109.36C946.33,534.1,888.49,581.71,794.57,612.83Z" transform="translate(-38 -76.1)"/><path id="path0_fill" data-name="path0 fill" class="cls-2" d="M341.33,754.25a85.76,85.76,0,0,0,85.75-85.71V582.83H341.33a85.71,85.71,0,1,0,0,171.42Z" transform="translate(-38 -76.1)"/><path id="path1_fill" data-name="path1 fill" class="cls-3" d="M255.58,497.12a85.76,85.76,0,0,1,85.75-85.7h85.75V582.83H341.33A85.76,85.76,0,0,1,255.58,497.12Z" transform="translate(-38 -76.1)"/><path id="path1_fill-2" data-name="path1 fill" class="cls-4" d="M255.33,325.71c0-47.31,38.53-85.71,86-85.71h86V411.42h-86C293.86,411.42,255.33,373,255.33,325.71Z" transform="translate(-38 -76.1)"/><path id="path2_fill" data-name="path2 fill" class="cls-5" d="M427.08,240h85.75a85.71,85.71,0,1,1,0,171.42H427.08Z" transform="translate(-38 -76.1)"/><path id="path3_fill" data-name="path3 fill" class="cls-6" d="M598.58,497.12a85.75,85.75,0,1,1-85.75-85.7A85.75,85.75,0,0,1,598.58,497.12Z" transform="translate(-38 -76.1)"/></svg>