<?xml version="1.0" encoding="utf-8"?>
<!-- Generator: Adobe Illustrator 22.1.0, SVG Export Plug-In . SVG Version: 6.00 Build 0)  -->
<svg version="1.1" id="logo" xmlns="http://www.w3.org/2000/svg" xmlns:xlink="http://www.w3.org/1999/xlink" x="0px" y="0px"
	 viewBox="0 0 1024 1024" enable-background="new 0 0 1024 1024" xml:space="preserve">
<g>
	<g>
		<g>
			<path fill="#1ABCFE" d="M818.16,349.731c-9.843-3.388-20.043-6.594-30.545-9.625c1.726-7.045,3.31-13.998,4.719-20.833
				c23.122-112.237,8.004-202.656-43.619-232.426c-49.5-28.545-130.455,1.218-212.214,72.371
				c-7.862,6.842-15.746,14.086-23.627,21.678c-5.251-5.023-10.494-9.877-15.723-14.52
				C411.464,90.293,325.576,58.232,274.003,88.088c-49.453,28.628-64.098,113.631-43.285,219.999
				c2.01,10.274,4.359,20.766,7.016,31.433c-12.156,3.451-23.891,7.129-35.119,11.042C102.157,385.586,38,440.478,38,497.415
				c0,58.805,68.873,117.787,173.508,153.551c8.257,2.822,16.826,5.491,25.656,8.024c-2.866,11.537-5.359,22.843-7.452,33.871
				c-19.845,104.522-4.347,187.516,44.974,215.964c50.945,29.378,136.444-0.819,219.698-73.594
				c6.58-5.753,13.184-11.853,19.8-18.248c8.575,8.257,17.136,16.072,25.652,23.402c80.642,69.395,160.289,97.417,209.564,68.89
				c50.894-29.462,67.434-118.618,45.96-227.091c-1.64-8.284-3.549-16.748-5.692-25.362c6.004-1.775,11.899-3.608,17.646-5.513
				c108.778-36.041,179.553-94.305,179.553-153.896C986.868,440.272,920.642,385.011,818.16,349.731z M467.71,804.71
				c-36.815,32.18-73.707,55.012-106.219,66.495c-29.216,10.318-52.485,10.614-66.551,2.503
				c-26.34-15.192-39.131-68.626-30.255-142.148C250.514,714.542,242,692.738,242,668.977c0-37.114,20.776-69.449,51.431-86.233
				c-9.624-5.271-18.277-12.07-25.615-20.074c-7.42,19.424-14.039,38.573-19.776,57.273c-8.073-2.321-15.895-4.763-23.421-7.333
				c-46.268-15.814-84.477-36.367-110.668-58.795c-23.534-20.154-35.416-40.164-35.416-56.4c0-34.551,51.512-78.622,137.425-108.576
				c10.424-3.635,21.337-7.06,32.661-10.277c5.325,17.322,11.401,34.999,18.171,52.91c6.732-7.572,14.616-14.116,23.385-19.357
				C261.489,395.432,242,362.888,242,325.5c0-24.645,8.468-47.186,22.457-64.466c-7.843-71.264,4.508-123.192,29.855-137.865
				c31.744-18.378,101.94,7.825,175.923,73.518c4.729,4.199,9.477,8.594,14.238,13.14c-3.399,3.65-6.794,7.363-10.182,11.135
				c-1.791,1.994-3.579,4.01-5.365,6.038H519c19.404,0,37.424,6.308,52.337,17.088c-9.974-12.008-20.004-23.456-30.049-34.279
				c7.291-7.014,14.572-13.703,21.823-20.014c70.052-60.963,135.525-85.033,165.355-67.831
				c31.775,18.324,44.131,92.223,24.168,189.128c-1.273,6.183-2.707,12.482-4.265,18.864c-39.367-9.083-82.114-15.843-126.87-20.041
				c-5.728-8.157-11.504-16.141-17.315-23.96C609.206,298.061,612,311.436,612,325.5c0,11.976-2.024,23.454-5.724,34.074
				c13.151,19.889,26.013,40.639,38.439,62.106c14.878,25.699,28.545,51.161,40.905,76.132
				c-12.323,25.4-25.959,51.118-40.772,76.806c-14.833,25.718-30.06,50.269-45.52,73.443c-28.157,2.013-57.246,3.05-86.894,3.05
				c-24.439,0-48.314-0.638-71.503-1.872v18.299c-0.232,22.026-5.047,39.191-12.441,52.578
				c18.765,24.421,37.979,47.212,57.298,67.945C479.735,793.904,473.706,799.468,467.71,804.71z M707.095,450.745
				c-8.607-16.341-17.711-32.817-27.297-49.377c-9.389-16.218-19.028-32.052-28.854-47.453c30.275,3.827,59.281,8.908,86.521,15.125
				C729.286,395.249,719.093,422.653,707.095,450.745z M707.482,544.593c12.683,28.907,23.374,56.876,31.862,83.471
				c-27.512,6.276-57.216,11.331-88.512,15.088c9.85-15.609,19.574-31.716,29.128-48.283
				C689.626,578.107,698.804,561.321,707.482,544.593z M514.008,758.892c-19.212-20.729-38.375-43.658-57.091-68.322
				c18.168,0.713,36.691,1.078,55.517,1.078c19.34,0,38.46-0.436,57.278-1.274C551.235,715.482,532.578,738.447,514.008,758.892z
				 M760.157,815.29c-5.651,30.462-17.016,50.772-31.069,58.906c-29.903,17.309-93.851-5.19-162.817-64.537
				c-7.906-6.803-15.87-14.067-23.858-21.756c26.736-29.241,53.458-63.235,79.537-100.989c45.871-4.07,89.208-10.725,128.509-19.81
				c1.936,7.808,3.655,15.466,5.136,22.953C765.091,738.023,766.447,781.389,760.157,815.29z M794.567,612.834
				c-5.189,1.718-10.512,3.378-15.937,4.987c-12.009-38.017-28.216-78.443-48.049-120.209
				c18.927-40.772,34.507-80.681,46.18-118.451c9.707,2.809,19.128,5.771,28.206,8.898
				c87.806,30.228,141.367,74.919,141.367,109.356C946.333,534.096,888.489,581.713,794.567,612.834z"/>
		</g>
	</g>
</g>
<g>
	<path id="path0_fill" fill="#0ACF83" d="M341.333,754.25c47.334,0,85.75-38.397,85.75-85.708v-85.708h-85.75
		c-47.334,0-85.75,38.397-85.75,85.708C255.584,715.853,293.999,754.25,341.333,754.25z"/>
	<path id="path1_fill" fill="#A259FF" d="M255.584,497.125c0-47.311,38.416-85.708,85.75-85.708h85.75v171.417h-85.75
		C293.999,582.833,255.584,544.436,255.584,497.125z"/>
	<path id="path1_fill_1_" fill="#F24E1E" d="M255.334,325.708c0-47.311,38.528-85.708,86-85.708h86v171.417h-86
		C293.862,411.417,255.334,373.019,255.334,325.708z"/>
	<path id="path2_fill" fill="#FF7262" d="M427.083,240h85.75c47.334,0,85.75,38.397,85.75,85.708s-38.416,85.708-85.75,85.708
		h-85.75V240z"/>
	<path id="path3_fill" fill="#1ABCFE" d="M598.583,497.125c0,47.311-38.416,85.708-85.75,85.708
		c-47.334,0-85.75-38.397-85.75-85.708s38.416-85.708,85.75-85.708C560.168,411.417,598.583,449.814,598.583,497.125z"/>
</g>
</svg>
