<svg width="500" height="126" viewBox="0 0 500 126" fill="none" xmlns="http://www.w3.org/2000/svg">
<rect width="500" height="126" fill="black"/>
<path d="M156.156 80H149.076V42.5H156.156V80ZM173.149 80.4883C169.276 80.4883 166.118 79.3001 163.677 76.9238C161.252 74.5475 160.039 71.3818 160.039 67.4268V66.7432C160.039 64.0902 160.552 61.722 161.577 59.6387C162.603 57.5391 164.051 55.9277 165.923 54.8047C167.811 53.6654 169.959 53.0957 172.368 53.0957C175.981 53.0957 178.822 54.235 180.889 56.5137C182.972 58.7923 184.014 62.0231 184.014 66.2061V69.0869H167.192C167.42 70.8122 168.104 72.1956 169.243 73.2373C170.399 74.279 171.855 74.7998 173.613 74.7998C176.331 74.7998 178.455 73.8151 179.985 71.8457L183.452 75.7275C182.394 77.2249 180.962 78.3968 179.155 79.2432C177.349 80.0732 175.347 80.4883 173.149 80.4883ZM172.344 58.8086C170.944 58.8086 169.805 59.2806 168.926 60.2246C168.063 61.1686 167.51 62.5195 167.266 64.2773H177.08V63.7158C177.048 62.1533 176.624 60.9489 175.811 60.1025C174.997 59.2399 173.841 58.8086 172.344 58.8086ZM201.349 72.7002C201.349 71.8376 200.917 71.1621 200.055 70.6738C199.208 70.1693 197.841 69.7217 195.953 69.3311C189.671 68.0127 186.529 65.3434 186.529 61.3232C186.529 58.9795 187.498 57.0264 189.435 55.4639C191.388 53.8851 193.935 53.0957 197.076 53.0957C200.429 53.0957 203.106 53.8851 205.108 55.4639C207.127 57.0426 208.136 59.0934 208.136 61.6162H201.08C201.08 60.6071 200.755 59.777 200.104 59.126C199.452 58.4587 198.435 58.125 197.052 58.125C195.864 58.125 194.944 58.3936 194.293 58.9307C193.642 59.4678 193.316 60.1514 193.316 60.9814C193.316 61.7627 193.683 62.3975 194.415 62.8857C195.164 63.3577 196.417 63.7728 198.175 64.1309C199.933 64.4727 201.414 64.8633 202.618 65.3027C206.345 66.6699 208.209 69.0381 208.209 72.4072C208.209 74.8161 207.175 76.7692 205.108 78.2666C203.041 79.7477 200.372 80.4883 197.101 80.4883C194.887 80.4883 192.918 80.0977 191.192 79.3164C189.483 78.5189 188.141 77.4365 187.164 76.0693C186.188 74.6859 185.699 73.1966 185.699 71.6016H192.389C192.454 72.8548 192.918 73.8151 193.78 74.4824C194.643 75.1497 195.799 75.4834 197.247 75.4834C198.598 75.4834 199.615 75.2311 200.299 74.7266C200.999 74.2057 201.349 73.5303 201.349 72.7002ZM226.081 72.7002C226.081 71.8376 225.65 71.1621 224.787 70.6738C223.941 70.1693 222.574 69.7217 220.686 69.3311C214.403 68.0127 211.262 65.3434 211.262 61.3232C211.262 58.9795 212.23 57.0264 214.167 55.4639C216.12 53.8851 218.667 53.0957 221.809 53.0957C225.161 53.0957 227.839 53.8851 229.841 55.4639C231.859 57.0426 232.868 59.0934 232.868 61.6162H225.812C225.812 60.6071 225.487 59.777 224.836 59.126C224.185 58.4587 223.168 58.125 221.784 58.125C220.596 58.125 219.676 58.3936 219.025 58.9307C218.374 59.4678 218.049 60.1514 218.049 60.9814C218.049 61.7627 218.415 62.3975 219.147 62.8857C219.896 63.3577 221.149 63.7728 222.907 64.1309C224.665 64.4727 226.146 64.8633 227.351 65.3027C231.078 66.6699 232.941 69.0381 232.941 72.4072C232.941 74.8161 231.908 76.7692 229.841 78.2666C227.774 79.7477 225.104 80.4883 221.833 80.4883C219.619 80.4883 217.65 80.0977 215.925 79.3164C214.216 78.5189 212.873 77.4365 211.896 76.0693C210.92 74.6859 210.432 73.1966 210.432 71.6016H217.121C217.186 72.8548 217.65 73.8151 218.513 74.4824C219.375 75.1497 220.531 75.4834 221.979 75.4834C223.33 75.4834 224.348 75.2311 225.031 74.7266C225.731 74.2057 226.081 73.5303 226.081 72.7002ZM243.123 53.584L243.343 56.5381C245.215 54.2432 247.745 53.0957 250.936 53.0957C254.337 53.0957 256.673 54.4385 257.942 57.124C259.798 54.4385 262.443 53.0957 265.877 53.0957C268.742 53.0957 270.874 53.9339 272.273 55.6104C273.673 57.2705 274.373 59.777 274.373 63.1299V80H267.293V63.1543C267.293 61.6569 267 60.5664 266.414 59.8828C265.828 59.1829 264.795 58.833 263.313 58.833C261.198 58.833 259.733 59.8421 258.919 61.8604L258.943 80H251.888V63.1787C251.888 61.6488 251.587 60.542 250.984 59.8584C250.382 59.1748 249.357 58.833 247.908 58.833C245.906 58.833 244.458 59.6631 243.562 61.3232V80H236.507V53.584H243.123ZM290.976 80.4883C287.102 80.4883 283.944 79.3001 281.503 76.9238C279.078 74.5475 277.865 71.3818 277.865 67.4268V66.7432C277.865 64.0902 278.378 61.722 279.403 59.6387C280.429 57.5391 281.877 55.9277 283.749 54.8047C285.637 53.6654 287.785 53.0957 290.194 53.0957C293.808 53.0957 296.648 54.235 298.715 56.5137C300.798 58.7923 301.84 62.0231 301.84 66.2061V69.0869H285.019C285.246 70.8122 285.93 72.1956 287.069 73.2373C288.225 74.279 289.682 74.7998 291.439 74.7998C294.158 74.7998 296.282 73.8151 297.812 71.8457L301.278 75.7275C300.22 77.2249 298.788 78.3968 296.981 79.2432C295.175 80.0732 293.173 80.4883 290.976 80.4883ZM290.17 58.8086C288.77 58.8086 287.631 59.2806 286.752 60.2246C285.889 61.1686 285.336 62.5195 285.092 64.2773H294.906V63.7158C294.874 62.1533 294.451 60.9489 293.637 60.1025C292.823 59.2399 291.667 58.8086 290.17 58.8086ZM319.175 72.7002C319.175 71.8376 318.743 71.1621 317.881 70.6738C317.035 70.1693 315.667 69.7217 313.779 69.3311C307.497 68.0127 304.355 65.3434 304.355 61.3232C304.355 58.9795 305.324 57.0264 307.261 55.4639C309.214 53.8851 311.761 53.0957 314.902 53.0957C318.255 53.0957 320.933 53.8851 322.935 55.4639C324.953 57.0426 325.962 59.0934 325.962 61.6162H318.906C318.906 60.6071 318.581 59.777 317.93 59.126C317.279 58.4587 316.261 58.125 314.878 58.125C313.69 58.125 312.77 58.3936 312.119 58.9307C311.468 59.4678 311.143 60.1514 311.143 60.9814C311.143 61.7627 311.509 62.3975 312.241 62.8857C312.99 63.3577 314.243 63.7728 316.001 64.1309C317.759 64.4727 319.24 64.8633 320.444 65.3027C324.172 66.6699 326.035 69.0381 326.035 72.4072C326.035 74.8161 325.002 76.7692 322.935 78.2666C320.868 79.7477 318.198 80.4883 314.927 80.4883C312.713 80.4883 310.744 80.0977 309.019 79.3164C307.31 78.5189 305.967 77.4365 304.99 76.0693C304.014 74.6859 303.525 73.1966 303.525 71.6016H310.215C310.28 72.8548 310.744 73.8151 311.606 74.4824C312.469 75.1497 313.625 75.4834 315.073 75.4834C316.424 75.4834 317.441 75.2311 318.125 74.7266C318.825 74.2057 319.175 73.5303 319.175 72.7002ZM343.907 72.7002C343.907 71.8376 343.476 71.1621 342.613 70.6738C341.767 70.1693 340.4 69.7217 338.512 69.3311C332.229 68.0127 329.088 65.3434 329.088 61.3232C329.088 58.9795 330.056 57.0264 331.993 55.4639C333.946 53.8851 336.493 53.0957 339.635 53.0957C342.988 53.0957 345.665 53.8851 347.667 55.4639C349.685 57.0426 350.694 59.0934 350.694 61.6162H343.639C343.639 60.6071 343.313 59.777 342.662 59.126C342.011 58.4587 340.994 58.125 339.61 58.125C338.422 58.125 337.503 58.3936 336.852 58.9307C336.201 59.4678 335.875 60.1514 335.875 60.9814C335.875 61.7627 336.241 62.3975 336.974 62.8857C337.722 63.3577 338.976 63.7728 340.733 64.1309C342.491 64.4727 343.972 64.8633 345.177 65.3027C348.904 66.6699 350.768 69.0381 350.768 72.4072C350.768 74.8161 349.734 76.7692 347.667 78.2666C345.6 79.7477 342.931 80.4883 339.659 80.4883C337.446 80.4883 335.476 80.0977 333.751 79.3164C332.042 78.5189 330.699 77.4365 329.723 76.0693C328.746 74.6859 328.258 73.1966 328.258 71.6016H334.947C335.012 72.8548 335.476 73.8151 336.339 74.4824C337.201 75.1497 338.357 75.4834 339.806 75.4834C341.157 75.4834 342.174 75.2311 342.857 74.7266C343.557 74.2057 343.907 73.5303 343.907 72.7002Z" fill="white"/>
<line x1="235" y1="66.45" x2="353" y2="66.45" stroke="#EB212E" stroke-width="7.1"/>
</svg>
