<svg width="150" height="134" viewBox="0 0 150 134" fill="none" xmlns="http://www.w3.org/2000/svg">
<path d="M150 66.806C150 56.8691 137.556 47.4521 118.477 41.6123C122.88 22.1667 120.923 6.69588 112.301 1.74276C110.314 0.58092 107.99 0.0305743 105.452 0.0305743V6.84876C106.859 6.84876 107.99 7.12393 108.938 7.6437C113.096 10.0285 114.9 19.1093 113.494 30.7888C113.157 33.6629 112.607 36.6898 111.934 39.7778C105.942 38.3102 99.3987 37.179 92.5194 36.4452C88.3918 30.7888 84.1113 25.6523 79.8002 21.1578C89.7676 11.8936 99.1235 6.81818 105.483 6.81818V0C97.075 0 86.0681 5.99266 74.9389 16.3881C63.8096 6.05381 52.8027 0.1223 44.3946 0.1223V6.94048C50.7236 6.94048 60.1101 11.9853 70.0775 21.1883C65.797 25.6828 61.5165 30.7888 57.4501 36.4452C50.5402 37.179 43.9972 38.3102 38.0045 39.8084C37.3013 36.7509 36.7815 33.7852 36.4146 30.9417C34.9776 19.2621 36.7509 10.1814 40.8785 7.766C41.7958 7.21565 42.9882 6.97106 44.3946 6.97106V0.152874C41.8263 0.152874 39.5026 0.70322 37.4847 1.86506C28.8932 6.81818 26.967 22.2585 31.4003 41.6429C12.3828 47.5132 0 56.8997 0 66.806C0 76.7428 12.4439 86.1598 31.5226 91.9996C27.1199 111.445 29.0766 126.916 37.6987 131.869C39.6861 133.031 42.0098 133.581 44.5781 133.581C52.9861 133.581 63.9931 127.589 75.1223 117.193C86.2515 127.528 97.2585 133.459 105.667 133.459C108.235 133.459 110.559 132.909 112.576 131.747C121.168 126.794 123.094 111.353 118.661 91.969C137.617 86.1292 150 76.7122 150 66.806ZM110.192 46.4126C109.06 50.3567 107.654 54.4232 106.064 58.4896C104.81 56.0436 103.496 53.5976 102.059 51.1517C100.652 48.7057 99.1541 46.3208 97.6559 43.9971C101.998 44.6392 106.186 45.4342 110.192 46.4126ZM96.1883 78.9747C93.8035 83.1023 91.3575 87.0159 88.8198 90.6543C84.2642 91.0518 79.6474 91.2658 75 91.2658C70.3832 91.2658 65.7664 91.0518 61.2413 90.6849C58.7036 87.0465 56.2271 83.1635 53.8422 79.0665C51.5185 75.0612 49.4089 70.9947 47.4827 66.8977C49.3783 62.8007 51.5186 58.7036 53.8117 54.6983C56.1965 50.5707 58.6425 46.6572 61.1802 43.0188C65.7358 42.6213 70.3526 42.4073 75 42.4073C79.6168 42.4073 84.2336 42.6213 88.7587 42.9882C91.2964 46.6266 93.7729 50.5096 96.1578 54.6066C98.4815 58.6119 100.591 62.6784 102.517 66.7754C100.591 70.8724 98.4814 74.9694 96.1883 78.9747ZM106.064 75C107.715 79.097 109.121 83.1941 110.283 87.1688C106.278 88.1472 102.059 88.9727 97.6865 89.6148C99.1847 87.2605 100.683 84.8451 102.089 82.3685C103.496 79.9225 104.81 77.446 106.064 75ZM75.0612 107.623C72.2177 104.688 69.3742 101.417 66.5614 97.8394C69.3131 97.9617 72.126 98.0534 74.9694 98.0534C77.8435 98.0534 80.6869 97.9923 83.4692 97.8394C80.7175 101.417 77.874 104.688 75.0612 107.623ZM52.3135 89.6148C47.9719 88.9727 43.7831 88.1777 39.7778 87.1994C40.9091 83.2552 42.3155 79.1888 43.9054 75.1223C45.159 77.5683 46.4737 80.0143 47.9107 82.4603C49.3477 84.9062 50.8153 87.2911 52.3135 89.6148ZM74.9083 25.9886C77.7517 28.9238 80.5952 32.1953 83.4081 35.7725C80.6563 35.6502 77.8435 35.5585 75 35.5585C72.126 35.5585 69.2825 35.6197 66.5002 35.7725C69.2519 32.1953 72.0954 28.9238 74.9083 25.9886ZM52.2829 43.9971C50.7848 46.3514 49.2866 48.7668 47.8801 51.2434C46.4737 53.6894 45.159 56.1353 43.9054 58.5813C42.2544 54.4843 40.8479 50.3873 39.6861 46.4126C43.6914 45.4647 47.9107 44.6392 52.2829 43.9971ZM24.6127 82.2768C13.7892 77.66 6.78761 71.6062 6.78761 66.806C6.78761 62.0057 13.7892 55.9213 24.6127 51.3351C27.2422 50.2038 30.1162 49.1949 33.0819 48.247C34.8247 54.2397 37.1178 60.477 39.9613 66.8671C37.1484 73.2267 34.8859 79.4333 33.1737 85.3954C30.1468 84.4476 27.2727 83.4081 24.6127 82.2768ZM41.062 125.968C36.9038 123.583 35.0999 114.503 36.5063 102.823C36.8426 99.949 37.393 96.9221 38.0656 93.8341C44.0583 95.3017 50.6013 96.4329 57.4806 97.1667C61.6082 102.823 65.8887 107.96 70.1998 112.454C60.2324 121.718 50.8765 126.794 44.5169 126.794C43.1411 126.763 41.9792 126.488 41.062 125.968ZM113.585 102.67C115.022 114.35 113.249 123.43 109.121 125.846C108.204 126.396 107.012 126.641 105.605 126.641C99.2764 126.641 89.8899 121.596 79.9226 112.393C84.203 107.898 88.4835 102.793 92.5499 97.1362C99.4599 96.4024 106.003 95.2711 111.996 93.7729C112.699 96.861 113.249 99.8267 113.585 102.67ZM125.357 82.2768C122.727 83.4081 119.853 84.417 116.887 85.3649C115.145 79.3722 112.852 73.1349 110.008 66.7448C112.821 60.3852 115.084 54.1786 116.796 48.2165C119.823 49.1643 122.697 50.2038 125.387 51.3351C136.211 55.9519 143.212 62.0057 143.212 66.806C143.182 71.6062 136.18 77.6906 125.357 82.2768Z" fill="#000000"/>
<path d="M74.9694 80.7786C82.6863 80.7786 88.9421 74.5228 88.9421 66.8059C88.9421 59.089 82.6863 52.8333 74.9694 52.8333C67.2525 52.8333 60.9968 59.089 60.9968 66.8059C60.9968 74.5228 67.2525 80.7786 74.9694 80.7786Z" fill="#000000"/>
</svg>
