<svg width="699" height="682" viewBox="0 0 699 682" fill="none" xmlns="http://www.w3.org/2000/svg">
<path d="M367.834 589.445C438.241 655.5 504.262 679.243 538.837 642.362C591.736 585.922 550.967 408.931 447.778 247.06C367.166 120.58 272.301 40.7484 209.432 38.7814C191.799 38.231 176.737 43.7723 165.166 56.1245C112.267 112.557 153.036 289.519 256.225 451.419C273.843 479.178 293.102 505.863 313.9 531.331L335.456 507.728C323.759 492.748 311.945 476.484 300.263 459.06C206.118 318.876 152.073 155.721 179.493 94.5832C186.355 79.3025 197.662 71.8309 212.238 71.4419C255.946 70.2309 329.056 132.55 399.654 237.658C493.799 377.805 547.859 541.005 520.418 602.105C501.587 644.072 449.232 627.06 387.804 566.928L387.414 566.465L367.834 589.445Z" fill="white"/>
<path d="M552.417 214.955C566.762 153.216 566.205 102.184 549.96 71.2553C541.679 55.4867 529.328 44.9327 512.834 40.8182C507.994 39.6224 503.033 38.9851 498.048 38.9186C461.435 38.2585 414.562 64.5885 366.449 109.481L366.171 109.738C368.818 112.444 375.199 119.214 375.272 119.273C381.529 125.939 384.55 129.027 388.129 132.518C424.903 96.9472 459.616 74.6877 486.518 72.3115C503.233 70.8446 515.342 77.1227 522.94 89.7523C536.355 112.034 535.614 154.147 521.341 208.164L552.417 214.955Z" fill="white"/>
<path d="M204.179 414.931C211.513 396.595 219.808 377.622 229.57 357.885C259.927 296.49 296.847 239.276 334.45 192.204L311.978 167.767C277.096 209.865 243.344 259.988 214.286 315.346C198.857 344.785 185.284 375.159 173.647 406.291L173.089 407.963L204.179 414.931Z" fill="white"/>
<path d="M495.62 283.42C488.579 300.553 480.651 318.265 471.622 336.528C396.564 488.347 281.541 616.175 214.696 622.079C169.143 626.106 158.164 572.06 179.309 489.396L149.7 483.345C127.94 576.746 139.946 645.857 188.865 658.061C264.291 676.881 397.957 553.966 487.413 383.511C503.292 353.384 517.278 322.298 529.292 290.432L495.62 283.42Z" fill="white"/>
<path d="M222.229 254.406C240.843 251.766 260.491 249.71 281.174 248.238C449.598 236.503 617.464 271.664 656.116 326.714C665.782 340.474 666.45 354.174 659.394 367.17C647.153 389.708 611.245 409.995 558.988 424.876C560.609 430.091 562.252 435.085 564.855 442.962C565.002 443.402 567.422 450.671 568.867 455.042C627.813 436.288 670.718 410.53 688.9 381.193C698.317 366.026 701.207 349.971 696.461 333.572C676.145 263.288 522.845 211.596 345.796 212.506C333.998 212.569 322.102 212.867 310.108 213.4C277.388 214.84 244.785 218.246 212.474 223.602L222.229 254.406Z" fill="white"/>
<path d="M479.052 441.474C460.716 444.048 441.42 446.094 421.112 447.502C252.71 459.2 84.8729 424.099 46.2068 369.07C19.8035 331.518 60.8753 294.576 142.931 271.114L133.396 242.327C41.7182 270.688 -11.8218 316.168 2.22328 364.875C23.9107 439.867 196.896 493.664 388.606 485.024C422.856 483.543 456.977 479.89 490.765 474.089L479.052 441.474Z" fill="white"/>
<path d="M313.173 409.291L280.529 352.817C280.019 351.817 279.753 350.709 279.753 349.586C279.753 348.463 280.019 347.356 280.529 346.356L313.342 289.97C313.958 289.03 314.788 288.249 315.763 287.689C316.737 287.13 317.83 286.808 318.953 286.75L384.433 286.846C385.555 286.911 386.647 287.238 387.62 287.801C388.593 288.364 389.421 289.147 390.036 290.087L422.674 346.561C423.184 347.562 423.45 348.669 423.45 349.792C423.45 350.915 423.184 352.022 422.674 353.022L389.853 409.408C389.237 410.348 388.407 411.129 387.433 411.689C386.458 412.248 385.365 412.57 384.242 412.628L318.769 412.533C317.648 412.468 316.558 412.14 315.586 411.577C314.614 411.014 313.788 410.231 313.173 409.291Z" fill="#A548F7"/>
<path d="M227.844 558.683L264.336 635.384C265.119 637.039 265.215 638.936 264.602 640.661C263.988 642.386 262.715 643.796 261.063 644.584L184.365 681.074C182.711 681.861 180.812 681.959 179.086 681.347C177.359 680.734 175.946 679.462 175.157 677.809L138.665 601.108C138.277 600.287 138.054 599.399 138.01 598.492C137.965 597.586 138.1 596.679 138.406 595.825C138.712 594.97 139.183 594.185 139.793 593.513C140.403 592.84 141.139 592.295 141.96 591.908L218.636 555.41C220.291 554.626 222.19 554.53 223.916 555.144C225.642 555.757 227.054 557.03 227.844 558.683Z" fill="#03D17E"/>
<path d="M587.001 294.744C587.001 283.866 590.227 273.233 596.271 264.188C602.314 255.143 610.904 248.094 620.954 243.931C631.004 239.768 642.062 238.679 652.731 240.801C663.4 242.923 673.2 248.161 680.892 255.853C688.584 263.545 693.822 273.345 695.945 284.014C698.067 294.683 696.978 305.742 692.815 315.792C688.652 325.842 681.602 334.432 672.558 340.475C663.513 346.518 652.879 349.744 642.001 349.744C627.414 349.744 613.425 343.95 603.111 333.635C592.796 323.321 587.001 309.331 587.001 294.744Z" fill="#02B8FA"/>
<path d="M122.38 62.4689C118.874 60.4813 118.852 57.1882 122.344 55.1346L215.489 0.919853C218.972 -1.1044 221.825 0.531133 221.825 4.58697V111.667C221.825 115.701 218.958 117.373 215.452 115.378L122.38 62.4689Z" fill="#FA3800"/>
<path d="M220.028 115.899L169.231 27.8879L215.76 0.809839C215.76 0.809839 217.96 -0.495657 219.552 0.208431C219.552 0.208431 221.664 0.692487 221.796 4.11758V112.466C221.796 112.466 221.737 115.019 220.028 115.899Z" fill="#FC6558"/>
</svg>
