<?xml version="1.0" encoding="utf-8"?>
<!-- Generator: Adobe Illustrator 21.0.2, SVG Export Plug-In . SVG Version: 6.00 Build 0)  -->
<svg version="1.1" id="Layer_1" xmlns="http://www.w3.org/2000/svg" xmlns:xlink="http://www.w3.org/1999/xlink" x="0px" y="0px"
	 viewBox="0 0 100 100" style="enable-background:new 0 0 100 100;" xml:space="preserve">
<g>
	<path d="M93.5,15c-0.8-0.8-2-0.8-2.8,0l-6.4,6.4l-5.7-5.7L85,9.3c0.8-0.8,0.8-2,0-2.8c-0.8-0.8-2-0.8-2.8,0l-6.4,6.4L73,10
		c-0.4-0.4-0.9-0.6-1.4-0.6s-1,0.2-1.4,0.6L59.5,20.7L48.9,10c-0.8-0.8-2.1-0.8-2.8,0l-17,17c-0.4,0.4-0.6,0.9-0.6,1.4
		s0.2,1,0.6,1.4l10.6,10.6L29.1,51.1c-0.8,0.8-0.8,2,0,2.8l17,17c0.4,0.4,0.9,0.6,1.4,0.6s1-0.2,1.4-0.6l10.6-10.6l10.6,10.6
		c0.8,0.8,2,0.8,2.8,0l17-17c0.8-0.8,0.8-2,0-2.8L79.3,40.5L90,29.8c0.8-0.8,0.8-2,0-2.8l-2.8-2.8l6.4-6.4
		C94.3,17,94.3,15.8,93.5,15z M75.1,39c-0.8,0.8-0.8,2,0,2.8l10.6,10.6L71.6,66.6L61,56c-0.4-0.4-0.9-0.6-1.4-0.6s-1,0.2-1.4,0.6
		L47.5,66.6L33.4,52.5L44,41.9c0.4-0.4,0.6-0.9,0.6-1.4s-0.2-1-0.6-1.4L33.4,28.4l14.1-14.1l10.6,10.6c0.4,0.4,0.9,0.6,1.4,0.6
		s1-0.2,1.4-0.6l10.6-10.6l14.1,14.1L75.1,39z" fill="#fff"/>
	<path d="M34.1,70.2l-4.9,4.9l-4.2-4.2l5-5c0.8-0.8,0.8-2,0-2.8c-0.8-0.8-2-0.8-2.8,0l-5,5l-1.4-1.4c-0.8-0.8-2-0.8-2.8,0l-7.1,7.1
		c-0.5,0.5-0.7,1.2-0.5,1.8l1.9,9.6l-5.6,5.6c-0.8,0.8-0.8,2,0,2.8c0.4,0.4,0.9,0.6,1.4,0.6s1-0.2,1.4-0.6l5.6-5.6l9.6,1.9
		c0.1,0,0.3,0,0.4,0c0.5,0,1-0.2,1.4-0.6l7.1-7.1c0.4-0.4,0.6-0.9,0.6-1.4s-0.2-1-0.6-1.4L32,77.9l4.9-4.9c0.8-0.8,0.8-2,0-2.8
		S34.9,69.4,34.1,70.2z M24.2,85.7L16,84l-1.7-8.2l4.9-4.9l9.9,9.9L24.2,85.7z" fill="#fff"/>
</g>
</svg>
